<?xml version="1.0" standalone="no"?><!DOCTYPE svg PUBLIC "-//W3C//DTD SVG 1.1//EN" "http://www.w3.org/Graphics/SVG/1.1/DTD/svg11.dtd"><svg t="1783837144957" class="icon" viewBox="0 0 1024 1024" version="1.1" xmlns="http://www.w3.org/2000/svg" p-id="3081" xmlns:xlink="http://www.w3.org/1999/xlink" width="200" height="200"><path d="M266.666667 85.333333C214.016 85.333333 170.666667 128.682667 170.666667 181.333333v289.066667c-24.32 4.970667-42.666667 26.517333-42.666667 52.266667v234.666666c0 25.749333 18.346667 47.296 42.666667 52.266667v33.066667c0 52.928 43.072 96 96 96h481.066666l-43.2-43.2A74.666667 74.666667 0 0 1 690.133333 874.666667H266.666667c-17.642667 0-32-14.357333-32-32V810.666667h455.466666c3.626667-7.573333 8.32-14.677333 14.4-20.8A74.176 74.176 0 0 1 757.333333 768c11.264 0 22.122667 2.474667 32 7.168V746.666667H192V533.333333h640v50.176A73.92 73.92 0 0 1 864 576c11.498667 0 22.272 2.858667 32 7.509333V522.666667c0-25.749333-18.346667-47.296-42.666667-52.266667V394.666667a32 32 0 0 0-9.386666-22.613334l-0.32-0.341333L566.613333 94.698667A32 32 0 0 0 544 85.333333h-277.333333z m0 64H512v181.333334c0 52.650667 43.349333 96 96 96H789.333333v42.666666H234.666667V181.333333c0-18.048 13.952-32 32-32zM576 194.581333L744.085333 362.666667H608c-18.048 0-32-13.952-32-32V194.581333zM368.917333 554.666667C330.197333 554.666667 298.666667 592.938667 298.666667 640s31.530667 85.333333 70.250666 85.333333a62.293333 62.293333 0 0 0 55.338667-33.28 21.333333 21.333333 0 1 0-38.293333-18.773333 19.733333 19.733333 0 0 1-17.045334 9.386667C354.24 682.666667 341.333333 662.72 341.333333 640s12.906667-42.666667 27.584-42.666667c11.178667 0 16.213333 7.978667 17.216 9.706667a21.333333 21.333333 0 0 0 38.165334-19.072A62.336 62.336 0 0 0 368.917333 554.666667z m135.082667 0a53.397333 53.397333 0 0 0-53.333333 53.333333c0 29.397333 23.936 53.333333 53.333333 53.333333h18.666667a10.666667 10.666667 0 0 1 0 21.333334h-23.296c-7.296 0-13.290667-5.418667-14.954667-7.082667a21.312 21.312 0 1 0-30.165333 30.165333c5.888 5.888 22.058667 19.584 45.12 19.584H522.666667c29.397333 0 53.333333-23.936 53.333333-53.333333S552.064 618.666667 522.666667 618.666667h-18.666667a10.666667 10.666667 0 0 1 0-21.333334h18.666667c6.485333 0 11.562667 4.437333 11.584 4.416a21.333333 21.333333 0 1 0 30.165333-30.165333c-1.728-1.728-17.621333-16.917333-41.749333-16.917333h-18.666667z m114.773333 0a21.312 21.312 0 0 0-19.818666 29.546666l53.333333 128a21.354667 21.354667 0 0 0 39.424 0l53.333333-128a21.354667 21.354667 0 0 0-39.424-16.426666L672 648.533333l-33.621333-80.746666a21.333333 21.333333 0 0 0-19.584-13.12zM864 618.666667a32 32 0 0 0-32 32v221.418666l-52.053333-52.053333a32 32 0 1 0-45.226667 45.269333l106.666667 106.666667c6.208 6.250667 14.421333 9.365333 22.613333 9.365333s16.384-3.114667 22.613333-9.386666l106.666667-106.666667a32 32 0 1 0-45.248-45.248L896 872.106667V650.666667a32 32 0 0 0-32-32z" p-id="3082"></path></svg>