<?xml version="1.0" standalone="no"?><!DOCTYPE svg PUBLIC "-//W3C//DTD SVG 1.1//EN" "http://www.w3.org/Graphics/SVG/1.1/DTD/svg11.dtd"><svg t="1783837156030" class="icon" viewBox="0 0 1024 1024" version="1.1" xmlns="http://www.w3.org/2000/svg" p-id="3347" xmlns:xlink="http://www.w3.org/1999/xlink" width="200" height="200"><path d="M890.6752 378.2656h-42.0352V309.3504a30.1056 30.1056 0 0 0-0.5632-5.5296v-0.256a29.696 29.696 0 0 0-2.6112-7.2704l-0.8704-1.5872a28.8256 28.8256 0 0 0-4.6592-6.2976l-182.1696-182.1696a29.952 29.952 0 0 0-6.2976-4.6592l-1.5872-0.8704a28.4672 28.4672 0 0 0-7.2704-2.6112 28.928 28.928 0 0 0-5.5808-0.5632H204.9536a29.6448 29.6448 0 0 0-29.6448 29.6448v250.88h-42.0864a29.6448 29.6448 0 0 0-29.6448 29.6448v363.52a29.6448 29.6448 0 0 0 29.6448 29.6448h42.0864v95.1808a29.6448 29.6448 0 0 0 29.6448 29.6448h613.9904a29.6448 29.6448 0 0 0 29.6448-29.6448v-95.1808h42.0352a29.6448 29.6448 0 0 0 29.6448-29.6448v-363.52a29.6448 29.6448 0 0 0-29.5936-29.44z m-143.36-98.56h-80.9472V199.0656z m-512.768-122.88h372.5312v152.5248a29.6448 29.6448 0 0 0 29.6448 29.6448h152.4736v39.2704H234.6496zM789.248 866.816H234.6496v-65.536h554.7008z m71.68-124.8256H162.816V437.6064h698.112z" fill="#93A6B9" p-id="3348"></path><path d="M392.4992 575.0784a108.9536 108.9536 0 0 1-28.8768-15.9744 17.92 17.92 0 0 1-5.8368-12.9024 15.7184 15.7184 0 0 1 8.4992-13.9776 43.6224 43.6224 0 0 1 22.784-5.12 74.1376 74.1376 0 0 1 42.7008 12.3904v-36.2496a126.5152 126.5152 0 0 0-44.4928-6.8608 84.9408 84.9408 0 0 0-50.944 13.9776 45.568 45.568 0 0 0-19.2512 39.2192q0 34.4576 42.4448 52.4288a118.1696 118.1696 0 0 1 33.3312 17.7664 19.5584 19.5584 0 0 1 6.3488 13.8752 16.3328 16.3328 0 0 1-7.9872 13.9776 42.0352 42.0352 0 0 1-23.7056 5.4784 76.0832 76.0832 0 0 1-49.7152-18.1248v38.7072a112.64 112.64 0 0 0 50.944 10.24 87.04 87.04 0 0 0 52.48-13.7216 46.3872 46.3872 0 0 0 18.4832-39.7312 47.9232 47.9232 0 0 0-10.24-30.72 95.488 95.488 0 0 0-36.9664-24.6784z" fill="#93A6B9" p-id="3349"></path><path d="M247.6032 608.0512q0 42.1888-27.8528 42.1888a37.2224 37.2224 0 0 1-22.8864-7.6288v36.352a67.2256 67.2256 0 0 0 25.344 4.6592 59.4944 59.4944 0 0 0 47.36-19.0976 81.92 81.92 0 0 0 16.5376-55.0912V499.4048h-38.6048z" fill="#93A6B9" p-id="3350"></path><path d="M790.528 602.6752a171.4688 171.4688 0 0 0 1.1264 24.9856h-0.6144a266.24 266.24 0 0 0-9.0112-14.3872l-73.8816-113.8176h-42.0864v181.0944h36.608v-103.0656a288.1536 288.1536 0 0 0-1.024-28.8768h0.6144a138.24 138.24 0 0 0 8.6528 14.7456l76.8 117.1456h39.4752V499.4048h-36.608z" fill="#93A6B9" p-id="3351"></path><path d="M549.3248 496.384a85.4528 85.4528 0 0 0-65.5872 26.7264 97.28 97.28 0 0 0-24.832 69.2736 92.16 92.16 0 0 0 24.2176 65.792 83.5072 83.5072 0 0 0 63.2832 25.6 84.0192 84.0192 0 0 0 64.4608-26.368 96.5632 96.5632 0 0 0 24.6272-68.6592 94.4128 94.4128 0 0 0-23.6544-66.56 80.64 80.64 0 0 0-62.5152-25.8048z m33.2288 137.7792a42.4448 42.4448 0 0 1-35.2768 16.0256 41.5232 41.5232 0 0 1-34.9696-16.7424 69.5296 69.5296 0 0 1-12.7488-43.2128 68.9664 68.9664 0 0 1 13.0048-43.5712 42.9568 42.9568 0 0 1 35.84-16.7936 40.6528 40.6528 0 0 1 34.6112 16.384 73.1648 73.1648 0 0 1 12.2368 44.6976 67.8912 67.8912 0 0 1-12.6976 43.2128z" fill="#93A6B9" p-id="3352"></path></svg>